<svg width="30" height="27" viewBox="0 0 30 27" fill="none" xmlns="http://www.w3.org/2000/svg">
<path fill-rule="evenodd" clip-rule="evenodd" d="M29.6936 0.289402C30.0915 0.685806 30.1034 1.34086 29.7203 1.75251L24.0505 7.84504C24.94 9.64228 25.4419 11.6789 25.4419 13.8369C25.4419 21.1067 19.7465 27 12.7209 27C5.69535 27 0 21.1067 0 13.8369C0 6.56712 5.69535 0.673798 12.7209 0.673798C16.9218 0.673798 20.6471 2.78089 22.9636 6.02941L28.2797 0.317008C28.6628 -0.0946416 29.2958 -0.107001 29.6936 0.289402ZM21.5525 7.54579C19.6187 4.6447 16.3844 2.74332 12.7209 2.74332C6.79992 2.74332 2 7.71008 2 13.8369C2 19.9637 6.79992 24.9305 12.7209 24.9305C18.6419 24.9305 23.4419 19.9637 23.4419 13.8369C23.4419 12.2747 23.1298 10.7879 22.5666 9.43957L13.3008 19.3963C12.566 20.1859 11.2931 19.9598 10.8547 18.9619L7.90359 12.2437C7.67505 11.7234 7.89737 11.11 8.40015 10.8735C8.90293 10.637 9.49578 10.8671 9.72432 11.3873L12.3708 17.412L21.5525 7.54579Z" fill="#EB632A"/>
</svg>
