<svg width="235" height="106" viewBox="0 0 235 106" fill="none" xmlns="http://www.w3.org/2000/svg">
<path fill-rule="evenodd" clip-rule="evenodd" d="M11.8692 6.63886C25.7541 -5.30732 46.2753 -0.691321 57.7044 16.9493C58.7498 18.5629 59.6818 20.2298 60.5038 21.9356C62.5061 22.1754 64.4975 23.5496 65.8176 25.862C67.9918 29.671 67.5412 34.6152 64.8418 37.0634C66.2711 49.9362 62.2719 62.7651 53.2581 70.5205C39.3729 82.4667 18.852 77.8507 7.42262 60.2103C-4.00652 42.5697 -2.01591 18.5853 11.8692 6.63886Z" fill="#1F1B20"/>
<path fill-rule="evenodd" clip-rule="evenodd" d="M41.505 35.3938C40.7505 32.2042 41.2952 28.8635 43.0108 26.6069L35.1289 17.4458C30.7646 22.5932 29.3884 30.6688 31.3507 38.2766L41.505 35.3938Z" fill="#EB632A" stroke="#1F1B20" stroke-width="0.0762" stroke-miterlimit="22.9256"/>
<path fill-rule="evenodd" clip-rule="evenodd" d="M35.8047 16.6986L43.6761 25.8475C43.8235 25.7009 43.9771 25.5612 44.1373 25.4287C45.8735 23.9914 48.0058 23.6888 50.0156 24.3671L51.4954 13.7161C51.4618 13.6773 51.4282 13.6386 51.3947 13.6001C46.5735 11.5272 41.3052 12.015 37.0857 15.5082C36.6363 15.8803 36.2093 16.2778 35.8047 16.6986Z" fill="#EB632A" stroke="#1F1B20" stroke-width="0.0762" stroke-miterlimit="22.9256"/>
<path fill-rule="evenodd" clip-rule="evenodd" d="M41.8263 36.5117L31.7832 39.7735C32.349 41.5463 33.1013 43.2809 34.0444 44.9327C36.9888 50.0899 41.2237 53.4436 45.6544 54.6677L47.1036 42.6806C45.4427 41.9747 43.8981 40.5918 42.7735 38.622C42.3868 37.9444 42.0716 37.2359 41.8263 36.5117Z" fill="#EB632A" stroke="#1F1B20" stroke-width="0.0762" stroke-miterlimit="22.9256"/>
<path fill-rule="evenodd" clip-rule="evenodd" d="M48.263 43.0587L46.8262 54.9407C50.6976 55.6771 54.644 54.7845 57.9476 52.0493C59.1363 51.0653 60.1698 49.9022 61.0438 48.6014L54.4114 40.8926C54.1323 41.2278 53.8254 41.5362 53.4911 41.8129C51.9411 43.0961 50.0752 43.4747 48.263 43.0587Z" fill="#EB632A" stroke="#1F1B20" stroke-width="0.0762" stroke-miterlimit="22.9256"/>
<path fill-rule="evenodd" clip-rule="evenodd" d="M55.2539 40.3425L61.2865 47.3541L61.5993 47.7177C63.3639 44.7307 64.3548 41.1224 64.527 37.3296C63.9077 37.8164 63.2331 38.14 62.5363 38.3087L61.5335 38.5888L55.2539 40.3425Z" fill="#EB632A" stroke="#1F1B20" stroke-width="0.0762" stroke-miterlimit="22.9256"/>
<path fill-rule="evenodd" clip-rule="evenodd" d="M57.215 22.4778L57.9065 22.2963C58.3598 22.104 58.8295 21.9824 59.3063 21.9289C59.7029 21.8844 60.1045 21.8871 60.5056 21.9353C60.4195 21.7565 60.3322 21.5784 60.2439 21.4008C58.0789 18.0568 55.3452 15.5786 52.3996 14.0728L52.313 14.6966L51.0059 24.1068L57.215 22.4778Z" fill="#EB632A" stroke="#1F1B20" stroke-width="0.0762" stroke-miterlimit="22.9256"/>
<path fill-rule="evenodd" clip-rule="evenodd" d="M47.732 56.7488C45.5582 58.5485 43.1247 59.6031 40.6094 59.9661L41.4342 72.2035C44.795 71.5113 48.0345 69.982 50.9619 67.5581C51.6119 67.02 52.2332 66.4488 52.8256 65.8469L48.1796 56.3643C48.0326 56.4951 47.8835 56.6233 47.732 56.7488Z" fill="#EB632A" stroke="#1F1B20" stroke-width="0.0762" stroke-miterlimit="22.9256"/>
<path fill-rule="evenodd" clip-rule="evenodd" d="M40.3749 72.3927L39.5449 60.0779C36.5365 60.2795 33.4482 59.5169 30.5784 57.8789L26.0684 69.8216C30.6854 72.2092 35.6298 73.1186 40.3749 72.3927Z" fill="#EB632A" stroke="#1F1B20" stroke-width="0.0762" stroke-miterlimit="22.9256"/>
<path fill-rule="evenodd" clip-rule="evenodd" d="M25.1423 69.3202L29.6716 57.327C26.7921 55.4654 24.1738 52.7006 22.1337 49.1276C22.1046 49.0768 22.0758 49.0257 22.047 48.9746L12.4316 56.2953C15.8385 62.1687 20.2859 66.573 25.1423 69.3202Z" fill="#EB632A" stroke="#1F1B20" stroke-width="0.0762" stroke-miterlimit="22.9256"/>
<path fill-rule="evenodd" clip-rule="evenodd" d="M11.9027 55.3552L21.5351 48.0217C19.6186 44.2879 18.5736 40.2171 18.3569 36.2298L6.54492 35.7876C6.78822 42.407 8.5449 49.2124 11.9027 55.3552Z" fill="#EB632A" stroke="#1F1B20" stroke-width="0.0762" stroke-miterlimit="22.9256"/>
<path fill-rule="evenodd" clip-rule="evenodd" d="M6.5161 34.3957L18.3169 35.0363C18.2663 31.1432 19.0096 27.3711 20.5056 24.1181L10.5942 16.7012C7.87192 21.8535 6.48606 28.0092 6.5161 34.3957Z" fill="#EB632A" stroke="#1F1B20" stroke-width="0.0762" stroke-miterlimit="22.9256"/>
<path fill-rule="evenodd" clip-rule="evenodd" d="M27.292 16.2689L21.5912 5.57031C20.0727 6.32588 18.6047 7.27881 17.2076 8.43554C14.8201 10.412 12.8194 12.835 11.2188 15.5769L21.0766 22.9707C22.1893 20.8976 23.6315 19.0743 25.3912 17.6174C26.0053 17.1089 26.6404 16.6597 27.292 16.2689Z" fill="#EB632A" stroke="#1F1B20" stroke-width="0.0762" stroke-miterlimit="22.9256"/>
<path fill-rule="evenodd" clip-rule="evenodd" d="M22.8652 4.98751L28.2092 15.7629C30.7628 14.4717 33.5348 14.028 36.2986 14.3647L35.6112 3.83895C31.3058 2.9406 26.9313 3.28583 22.8652 4.98751Z" fill="#EB632A" stroke="#1F1B20" stroke-width="0.0762" stroke-miterlimit="22.9256"/>
<path fill-rule="evenodd" clip-rule="evenodd" d="M37.0181 14.2595C38.8121 13.3216 40.9866 12.4084 44.0215 12.1266L46.2033 8.75439C43.142 6.46213 39.8412 4.87197 36.4824 4.03809L37.0181 14.2595Z" fill="#EB632A" stroke="#1F1B20" stroke-width="0.0762" stroke-miterlimit="22.9256"/>
<path d="M44.0215 12.1266L46.2033 8.75439C43.142 6.46213 39.8413 4.87197 36.4824 4.03809L37.0182 14.2595" stroke="#1F1B20" stroke-width="0.0762" stroke-miterlimit="22.9256"/>
<path fill-rule="evenodd" clip-rule="evenodd" d="M48.8867 55.8591C50.0995 55.7194 51.3481 55.5073 53.2787 55.0338C53.8893 54.8842 54.5164 54.6126 55.139 54.2627L59.5956 54.5971C58.2287 58.5823 56.1898 62.1818 53.5065 65.1266L48.8867 55.8591Z" fill="#EB632A" stroke="#1F1B20" stroke-width="0.0762" stroke-miterlimit="22.9256"/>
<path d="M55.1388 54.2627L59.5955 54.5971C58.2286 58.5823 56.1897 62.1818 53.5064 65.1266L48.8867 55.8592" stroke="#1F1B20" stroke-width="0.0762" stroke-miterlimit="22.9256"/>
<path fill-rule="evenodd" clip-rule="evenodd" d="M64.6888 37.1541C67.5448 34.5717 67.9943 29.6285 65.8204 25.8203C64.5185 23.5399 62.5635 22.1714 60.5487 21.8992C60.1071 21.8457 59.7053 21.8431 59.3088 21.8876L57.909 22.255C57.6966 22.3451 57.4877 22.4509 57.2832 22.5723C57.042 22.7157 56.807 22.8812 56.5799 23.0693C55.2993 24.1295 54.4844 25.727 54.1712 27.5179C53.7807 29.7493 54.1689 32.2804 55.4042 34.4445C55.7018 34.9657 56.0335 35.4394 56.3918 35.8633C57.8369 37.5723 59.714 38.469 61.5264 38.406C61.8667 38.394 62.2048 38.3482 62.5376 38.2676C63.2367 38.0983 63.9113 37.7746 64.6888 37.1541Z" fill="#EB632A" stroke="#1F1B20" stroke-width="0.0762" stroke-miterlimit="22.9256"/>
<path fill-rule="evenodd" clip-rule="evenodd" d="M77.2656 13.2251H124.861V25.7533H108.176V64.1576H93.9506V25.7533H77.2656V13.2251Z" fill="white"/>
<path fill-rule="evenodd" clip-rule="evenodd" d="M172.258 25.7532L174.716 14.1617C164.898 12.0159 156.468 11.7037 149.426 13.225C141.755 15.1989 137.228 20.1166 135.844 27.9779V47.5311C137.164 56.2584 141.691 61.7614 149.426 64.0404C158.342 65.3006 166.694 65.1444 174.482 63.572L172.609 51.395C165.422 52.1832 159.412 52.1832 154.578 51.395C152.064 50.0898 150.581 47.5529 150.128 43.7845C150.44 36.369 150.597 32.6613 150.597 32.6613C151.636 28.5199 153.626 26.1001 156.568 25.402C161.257 24.6704 166.487 24.7876 172.258 25.7532Z" fill="white"/>
<path fill-rule="evenodd" clip-rule="evenodd" d="M227.323 25.8704L229.781 14.2788C219.963 12.133 207.903 11.7038 200.861 13.2251C193.191 15.199 188.664 20.1166 187.279 27.9779V47.5312C188.599 56.2585 193.126 61.7615 200.861 64.0404C209.777 65.3006 223.866 64.2663 231.655 62.6939L231.713 61.406V43.9017V32.076H217.78H208.882V43.9017H217.78V51.897C213.291 52.1093 209.369 51.9422 206.013 51.3951C203.499 50.0899 202.016 47.553 201.564 43.7845C201.876 36.3691 202.032 32.6613 202.032 32.6613C203.071 28.5199 205.062 26.1002 208.003 25.402C212.693 24.6705 221.552 24.9046 227.323 25.8704Z" fill="white"/>
<path d="M2.39453 87.523V85.7204H15.3166V87.523H10.6779V101.493H7.06329V87.523H2.39453ZM15.3417 95.8639C15.3417 92.8069 16.4411 90.9555 18.6349 90.3096C19.3528 90.103 20.1611 90.0016 21.0647 90.0016C22.9674 90.0016 24.3731 90.441 25.2867 91.3236C26.2858 92.2961 26.7878 93.8096 26.7878 95.8563V96.6488H18.9562C18.9562 97.9406 19.2624 98.8457 19.8699 99.3639C20.4824 99.8822 21.4262 100.141 22.7063 100.141H26.0046V101.268C24.8801 101.568 23.6602 101.719 22.3449 101.719C21.0296 101.719 19.9452 101.613 19.0918 101.403C18.2383 101.197 17.5405 100.859 16.9883 100.397C15.8889 99.4729 15.3417 97.9632 15.3417 95.8639ZM18.9562 95.0714H23.1732C23.1732 93.0736 22.7516 91.9169 21.9031 91.6089C21.6521 91.515 21.371 91.4662 21.0647 91.4662C20.3669 91.4662 19.8599 91.699 19.5436 92.161C19.1521 92.7543 18.9562 93.727 18.9562 95.0714ZM29.1975 95.8601C29.1975 92.8144 30.3421 90.963 32.6364 90.3096C33.3693 90.103 34.3482 90.0016 35.5682 90.0016C36.788 90.0016 37.9779 90.1518 39.1375 90.4523V91.5789H35.8141C34.3131 91.5789 33.3793 92.3074 33.0179 93.7683C32.8823 94.3203 32.812 95.0151 32.812 95.8601C32.812 98.1847 33.4496 99.5517 34.7247 99.9535C35.1364 100.077 35.6033 100.141 36.1204 100.141H39.4287V101.268C38.274 101.568 37.0641 101.719 35.8042 101.719C34.5441 101.719 33.5249 101.613 32.7467 101.403C31.9687 101.197 31.3161 100.859 30.7838 100.397C29.7246 99.4729 29.1975 97.9594 29.1975 95.8601ZM41.984 101.493V85.7204H45.5985V90.6738C46.3515 90.2269 47.3556 90.0016 48.6056 90.0016C50.0816 90.0016 51.176 90.2344 51.8939 90.6964C52.8176 91.2897 53.2794 92.2587 53.2794 93.5993V101.493H49.665V93.6031C49.665 92.8933 49.4088 92.3526 48.9019 91.9845C48.5204 91.7141 47.9732 91.5789 47.2653 91.5789C46.5574 91.5789 46.0002 91.7291 45.5985 92.0295V101.493H41.984ZM57.1903 101.493V90.2269H59.7455L60.2024 90.8954H60.348C61.1914 90.2983 62.351 90.0016 63.8219 90.0016C65.2979 90.0016 66.3872 90.2344 67.1052 90.6964C68.0238 91.2897 68.4857 92.2587 68.4857 93.5993V101.493H64.8712V93.6031C64.8712 92.8858 64.6202 92.345 64.1182 91.9845C63.7366 91.7141 63.1844 91.5789 62.4615 91.5789C61.7386 91.5789 61.1864 91.7291 60.8048 92.0295V101.493H57.1903ZM71.6435 95.8601C71.6435 92.8069 72.7931 90.9555 75.0873 90.3096C75.8304 90.103 76.6938 90.0016 77.6778 90.0016C79.6758 90.0016 81.1669 90.441 82.1458 91.3236C83.1749 92.2624 83.692 93.7758 83.692 95.8601C83.692 98.9058 82.5474 100.757 80.2632 101.411C79.5202 101.617 78.6567 101.719 77.6778 101.719C75.6646 101.719 74.1737 101.279 73.2048 100.397C72.1656 99.4578 71.6435 97.9444 71.6435 95.8601ZM75.258 95.8601C75.258 98.2523 75.745 99.6569 76.7189 100.066C77.0101 100.19 77.3314 100.254 77.6778 100.254C78.8525 100.254 79.5955 99.5104 79.9017 98.0195C80.0172 97.4524 80.0775 96.7351 80.0775 95.8601C80.0775 93.4754 79.5905 92.0709 78.6166 91.654C78.3355 91.5301 78.0191 91.4662 77.6778 91.4662C76.488 91.4662 75.74 92.2098 75.4338 93.7007C75.3183 94.2678 75.258 94.9851 75.258 95.8601ZM93.7827 93.5993C93.7827 90.5874 94.37 88.4506 95.5447 87.1888C96.5939 86.0584 98.2206 85.4951 100.419 85.4951C102.623 85.4951 104.275 85.6453 105.384 85.9458V87.185H101.765C100.374 87.185 99.3249 87.6169 98.6171 88.4844C97.8038 89.4834 97.3972 91.1883 97.3972 93.5993C97.3972 97.0731 98.3109 99.1161 100.133 99.7319C100.701 99.9309 101.343 100.029 102.061 100.029H105.676V101.268C104.531 101.568 103.145 101.719 101.529 101.719C99.9123 101.719 98.6622 101.591 97.7787 101.339C96.9002 101.084 96.1622 100.648 95.5749 100.032C94.3801 98.7781 93.7827 96.6337 93.7827 93.5993ZM107.327 98.1171C107.327 96.138 108.316 94.9813 110.294 94.6508C110.902 94.5569 111.594 94.5081 112.362 94.5081C113.131 94.5081 113.964 94.587 114.858 94.741V93.8359C114.858 92.9346 114.576 92.33 114.009 92.0295C113.447 91.7291 112.674 91.5789 111.695 91.5789H108.678V90.4523C109.827 90.1518 110.972 90.0016 112.112 90.0016C113.256 90.0016 114.21 90.0542 114.973 90.1556C115.736 90.257 116.379 90.4485 116.901 90.7264C117.95 91.2935 118.472 92.3262 118.472 93.8321V101.493H115.917L115.46 100.821H115.314C114.471 101.418 113.362 101.719 111.986 101.719C110.515 101.719 109.426 101.486 108.708 101.024C107.789 100.43 107.327 99.4616 107.327 98.1171ZM110.942 98.1171C110.942 98.8306 111.188 99.3677 111.68 99.7357C112.041 100.006 112.568 100.141 113.251 100.141C113.939 100.141 114.476 99.991 114.858 99.6906V96.0854H113.196C112.558 96.0854 112.091 96.1943 111.795 96.4159C111.228 96.8402 110.942 97.4073 110.942 98.1171ZM122.528 101.046V85.7204H126.143V90.5649C126.861 90.1894 127.669 90.0016 128.578 90.0016C129.482 90.0016 130.275 90.1067 130.942 90.317C131.615 90.5236 132.187 90.8616 132.654 91.3236C133.633 92.2849 134.125 93.7983 134.125 95.8601C134.125 97.9518 133.588 99.4653 132.509 100.397C131.961 100.859 131.269 101.197 130.435 101.403C129.602 101.613 128.452 101.719 126.981 101.719C125.51 101.719 124.029 101.493 122.528 101.046ZM126.143 100.141H127.498C128.467 100.141 129.195 99.8521 129.687 99.2701C130.235 98.6128 130.511 97.4749 130.511 95.8601C130.511 93.5617 129.963 92.1986 128.864 91.7667C128.538 91.6427 128.186 91.5789 127.805 91.5789C127.097 91.5789 126.545 91.7291 126.143 92.0295V100.141ZM137.428 101.493V85.7204H141.043V101.493H137.428ZM144.351 95.8639C144.351 92.8069 145.451 90.9555 147.645 90.3096C148.363 90.103 149.171 90.0016 150.074 90.0016C151.977 90.0016 153.383 90.441 154.296 91.3236C155.295 92.2961 155.797 93.8096 155.797 95.8563V96.6488H147.966C147.966 97.9406 148.272 98.8457 148.88 99.3639C149.492 99.8822 150.436 100.141 151.716 100.141H155.014V101.268C153.89 101.568 152.67 101.719 151.355 101.719C150.039 101.719 148.955 101.613 148.101 101.403C147.248 101.197 146.55 100.859 145.998 100.397C144.899 99.4729 144.351 97.9632 144.351 95.8639ZM147.966 95.0714H152.183C152.183 93.0736 151.761 91.9169 150.913 91.6089C150.662 91.515 150.381 91.4662 150.074 91.4662C149.377 91.4662 148.87 91.699 148.553 92.161C148.162 92.7543 147.966 93.727 147.966 95.0714ZM165.888 93.5993C165.888 90.5649 166.486 88.4281 167.68 87.1888C168.268 86.5729 169.006 86.1372 169.894 85.8819C170.778 85.6227 172.038 85.4951 173.669 85.4951C175.301 85.4951 176.677 85.6453 177.786 85.9458V87.185H173.87C172.48 87.185 171.43 87.6169 170.723 88.4844C169.909 89.4834 169.503 91.1883 169.503 93.5993C169.503 97.0731 170.411 99.1161 172.234 99.7319C172.806 99.9309 173.444 100.029 174.161 100.029H174.924V92.9534H178.539V101.275C177.379 101.572 175.929 101.719 174.187 101.719C172.445 101.719 171.094 101.591 170.135 101.339C169.176 101.084 168.378 100.648 167.741 100.032C166.506 98.8231 165.888 96.6788 165.888 93.5993ZM182.299 101.493V90.2269H184.855L185.311 91.1282H185.457C186.31 90.5274 187.47 90.2269 188.926 90.2269H190.884V92.1422H187.575C186.868 92.1422 186.315 92.2925 185.914 92.5929V101.493H182.299ZM192.094 95.8601C192.094 92.8069 193.243 90.9555 195.538 90.3096C196.28 90.103 197.144 90.0016 198.128 90.0016C200.126 90.0016 201.617 90.441 202.596 91.3236C203.625 92.2624 204.142 93.7758 204.142 95.8601C204.142 98.9058 202.998 100.757 200.713 101.411C199.97 101.617 199.107 101.719 198.128 101.719C196.115 101.719 194.624 101.279 193.655 100.397C192.616 99.4578 192.094 97.9444 192.094 95.8601ZM195.708 95.8601C195.708 98.2523 196.195 99.6569 197.169 100.066C197.46 100.19 197.782 100.254 198.128 100.254C199.303 100.254 200.046 99.5104 200.352 98.0195C200.467 97.4524 200.528 96.7351 200.528 95.8601C200.528 93.4754 200.041 92.0709 199.067 91.654C198.786 91.5301 198.469 91.4662 198.128 91.4662C196.938 91.4662 196.19 92.2098 195.884 93.7007C195.768 94.2678 195.708 94.9851 195.708 95.8601ZM207.305 98.1209V90.2269H210.919V98.1171C210.919 98.8269 211.171 99.3677 211.672 99.7357C212.064 100.006 212.621 100.141 213.334 100.141C214.052 100.141 214.604 99.991 214.986 99.6906V90.2269H218.6V101.493H216.045L215.588 100.821H215.443C214.599 101.418 213.445 101.719 211.979 101.719C210.503 101.719 209.403 101.486 208.685 101.024C207.767 100.43 207.305 99.4615 207.305 98.1209ZM222.511 106V90.2269H225.066L225.523 90.8954H225.669C226.512 90.2983 227.617 90.0016 228.977 90.0016C231.427 90.0016 233.008 91.0532 233.726 93.1524C233.982 93.8922 234.108 94.7973 234.108 95.8601C234.108 98.8907 233.049 100.742 230.935 101.411C230.257 101.617 229.464 101.719 228.561 101.719C227.652 101.719 226.844 101.531 226.126 101.155V106H222.511ZM226.126 99.6906C226.527 99.991 227.08 100.141 227.787 100.141C228.641 100.141 229.278 99.8521 229.7 99.2701C230.227 98.5678 230.493 97.4299 230.493 95.8601C230.493 93.5543 229.946 92.191 228.847 91.7667C228.515 91.6427 228.159 91.5789 227.787 91.5789C227.2 91.5789 226.648 91.7291 226.126 92.0295V99.6906Z" fill="white"/>
</svg>
