<svg width="156" height="14" viewBox="0 0 156 14" fill="none" xmlns="http://www.w3.org/2000/svg">
<path d="M0 1.38458V0.153819H8.6997V1.38458H5.57672V10.9231H3.14322V1.38458H0ZM8.71664 7.07948C8.71664 4.99226 9.4568 3.72818 10.9338 3.28719C11.4171 3.1461 11.9613 3.07691 12.5696 3.07691C13.8506 3.07691 14.797 3.37689 15.4121 3.97948C16.0847 4.64354 16.4226 5.6769 16.4226 7.07434V7.61538H11.1501C11.1501 8.49743 11.3562 9.11539 11.7652 9.46918C12.1776 9.82305 12.813 10 13.6748 10H15.8954V10.7692C15.1383 10.9743 14.317 11.0769 13.4315 11.0769C12.546 11.0769 11.8159 11.0051 11.2413 10.8615C10.6668 10.7205 10.197 10.4897 9.8252 10.1743C9.08504 9.54359 8.71664 8.5128 8.71664 7.07948ZM11.1501 6.53843H13.9891C13.9891 5.17437 13.7053 4.38459 13.1341 4.17431C12.9651 4.1102 12.7758 4.0769 12.5696 4.0769C12.0998 4.0769 11.7584 4.23585 11.5456 4.55126C11.2819 4.95637 11.1501 5.6205 11.1501 6.53843ZM18.0449 7.0769C18.0449 4.9974 18.8155 3.73332 20.3602 3.28719C20.8536 3.1461 21.5127 3.07691 22.334 3.07691C23.1553 3.07691 23.9563 3.17948 24.7371 3.38461V4.15381H22.4996C21.489 4.15381 20.8604 4.65125 20.617 5.64866C20.5258 6.0256 20.4784 6.49997 20.4784 7.0769C20.4784 8.6641 20.9077 9.5974 21.7662 9.87178C22.0433 9.9564 22.3577 10 22.7058 10H24.9331V10.7692C24.1557 10.9743 23.3412 11.0769 22.4929 11.0769C21.6445 11.0769 20.9584 11.0051 20.4345 10.8615C19.9107 10.7205 19.4713 10.4897 19.113 10.1743C18.3998 9.54359 18.0449 8.51022 18.0449 7.0769ZM26.6535 10.9231V0.153819H29.0869V3.53584C29.5939 3.23073 30.2698 3.07691 31.1114 3.07691C32.1051 3.07691 32.8419 3.23588 33.3252 3.55129C33.9471 3.95639 34.258 4.61794 34.258 5.5333V10.9231H31.8246V5.53588C31.8246 5.05129 31.6522 4.68206 31.3109 4.43076C31.054 4.24615 30.6856 4.15381 30.209 4.15381C29.7324 4.15381 29.3573 4.25637 29.0869 4.4615V10.9231H26.6535ZM36.891 10.9231V3.23073H38.6113L38.9189 3.68715H39.0169C39.5847 3.27947 40.3654 3.07691 41.3557 3.07691C42.3494 3.07691 43.0828 3.23588 43.5662 3.55129C44.1846 3.95639 44.4956 4.61794 44.4956 5.5333V10.9231H42.0622V5.53588C42.0622 5.04614 41.8931 4.67692 41.5552 4.43076C41.2983 4.24615 40.9265 4.15381 40.4398 4.15381C39.9531 4.15381 39.5813 4.25637 39.3244 4.4615V10.9231H36.891ZM46.6216 7.0769C46.6216 4.99225 47.3955 3.72818 48.9401 3.28719C49.4403 3.1461 50.0216 3.07691 50.6841 3.07691C52.0293 3.07691 53.0331 3.37689 53.6922 3.97948C54.385 4.62052 54.7331 5.6538 54.7331 7.0769C54.7331 9.15641 53.9625 10.4205 52.4248 10.8666C51.9245 11.0076 51.3431 11.0769 50.6841 11.0769C49.3288 11.0769 48.325 10.7769 47.6727 10.1743C46.973 9.5333 46.6216 8.5 46.6216 7.0769ZM49.055 7.0769C49.055 8.71021 49.3829 9.66923 50.0386 9.94869C50.2346 10.0333 50.4509 10.0769 50.6841 10.0769C51.475 10.0769 51.9752 9.56923 52.1814 8.55124C52.2591 8.16407 52.2997 7.67435 52.2997 7.0769C52.2997 5.44868 51.9718 4.48972 51.3161 4.20512C51.1269 4.12049 50.9139 4.0769 50.6841 4.0769C49.8831 4.0769 49.3795 4.58457 49.1733 5.60256C49.0956 5.98973 49.055 6.47946 49.055 7.0769ZM61.5267 5.5333C61.5267 3.47688 61.9221 2.0179 62.713 1.15637C63.4193 0.384602 64.5144 0 65.9948 0C67.4786 0 68.5905 0.102564 69.3374 0.307691V1.15379H66.9006C65.9644 1.15379 65.258 1.44868 64.7814 2.04098C64.2339 2.72305 63.9601 3.88713 63.9601 5.5333C63.9601 7.90513 64.5753 9.3 65.8022 9.72047C66.1841 9.85635 66.6167 9.92303 67.1 9.92303H69.5335V10.7692C68.7628 10.9743 67.83 11.0769 66.7418 11.0769C65.6534 11.0769 64.8118 10.9897 64.217 10.8179C63.6255 10.6435 63.1287 10.3461 62.7333 9.9256C61.9289 9.06921 61.5267 7.60509 61.5267 5.5333ZM70.6454 8.61794C70.6454 7.26667 71.3113 6.47689 72.6429 6.25125C73.0519 6.18713 73.5183 6.15383 74.0354 6.15383C74.5525 6.15383 75.1136 6.20764 75.7152 6.31278V5.69483C75.7152 5.07945 75.5259 4.66663 75.144 4.4615C74.7655 4.25637 74.245 4.15381 73.5859 4.15381H71.5547V3.38461C72.3286 3.17948 73.0992 3.07691 73.8665 3.07691C74.6371 3.07691 75.2792 3.1128 75.7929 3.18206C76.3067 3.25125 76.7393 3.38203 77.0908 3.57179C77.7972 3.95896 78.1487 4.66405 78.1487 5.69226V10.9231H76.4284L76.1208 10.4641H76.0228C75.455 10.8718 74.708 11.0769 73.7819 11.0769C72.7916 11.0769 72.0582 10.9179 71.5749 10.6025C70.9564 10.1974 70.6454 9.53587 70.6454 8.61794ZM73.0789 8.61794C73.0789 9.1051 73.2446 9.47176 73.5758 9.72305C73.8192 9.90767 74.174 10 74.6336 10C75.0967 10 75.4583 9.89738 75.7152 9.69225V7.23072H74.5965C74.1673 7.23072 73.8529 7.30512 73.6535 7.45636C73.2716 7.74611 73.0789 8.13328 73.0789 8.61794ZM80.8796 10.6179V0.153819H83.3131V3.46151C83.7964 3.20514 84.3406 3.07691 84.9523 3.07691C85.5607 3.07691 86.0947 3.14868 86.5442 3.29227C86.9971 3.43328 87.3824 3.66407 87.6967 3.97948C88.3559 4.63589 88.687 5.66917 88.687 7.0769C88.687 8.50508 88.3254 9.53844 87.5988 10.1743C87.2304 10.4897 86.7639 10.7205 86.2028 10.8615C85.6418 11.0051 84.8678 11.0769 83.8775 11.0769C82.8873 11.0769 81.8902 10.9231 80.8796 10.6179ZM83.3131 10H84.2256C84.878 10 85.3681 9.80253 85.6992 9.40514C86.0677 8.95636 86.2536 8.17945 86.2536 7.0769C86.2536 5.50764 85.8852 4.57692 85.145 4.28203C84.9253 4.1974 84.6887 4.15381 84.4318 4.15381C83.9553 4.15381 83.5835 4.25637 83.3131 4.4615V10ZM90.911 10.9231V0.153819H93.3445V10.9231H90.911ZM95.5718 7.07948C95.5718 4.99226 96.312 3.72818 97.789 3.28719C98.2723 3.1461 98.8164 3.07691 99.4248 3.07691C100.706 3.07691 101.652 3.37689 102.267 3.97948C102.94 4.64354 103.278 5.6769 103.278 7.07434V7.61538H98.0053C98.0053 8.49743 98.2114 9.11539 98.6204 9.46918C99.0328 9.82305 99.6681 10 100.53 10H102.751V10.7692C101.994 10.9743 101.172 11.0769 100.287 11.0769C99.4011 11.0769 98.6711 11.0051 98.0965 10.8615C97.5219 10.7205 97.0522 10.4897 96.6804 10.1743C95.9402 9.54359 95.5718 8.5128 95.5718 7.07948ZM98.0053 6.53843H100.844C100.844 5.17437 100.56 4.38459 99.9892 4.17431C99.8203 4.1102 99.631 4.0769 99.4248 4.0769C98.955 4.0769 98.6136 4.23585 98.4007 4.55126C98.1371 4.95637 98.0053 5.6205 98.0053 6.53843ZM110.071 5.5333C110.071 3.46151 110.474 2.00254 111.278 1.15637C111.673 0.735892 112.17 0.43842 112.768 0.264096C113.363 0.0871303 114.212 0 115.31 0C116.409 0 117.335 0.102564 118.082 0.307691V1.15379H115.445C114.509 1.15379 113.803 1.44868 113.326 2.04098C112.779 2.72305 112.505 3.88713 112.505 5.5333C112.505 7.90513 113.117 9.3 114.343 9.72047C114.729 9.85635 115.158 9.92303 115.641 9.92303H116.155V5.09231H118.589V10.7743C117.808 10.9769 116.831 11.0769 115.658 11.0769C114.485 11.0769 113.576 10.9897 112.931 10.8179C112.285 10.6435 111.748 10.3461 111.318 9.9256C110.487 9.09995 110.071 7.63589 110.071 5.5333ZM121.12 10.9231V3.23073H122.84L123.148 3.84612H123.246C123.82 3.43586 124.601 3.23073 125.581 3.23073H126.9V4.53846H124.672C124.196 4.53846 123.824 4.64103 123.553 4.84615V10.9231H121.12ZM127.714 7.0769C127.714 4.99225 128.488 3.72818 130.033 3.28719C130.533 3.1461 131.114 3.07691 131.777 3.07691C133.122 3.07691 134.126 3.37689 134.785 3.97948C135.478 4.62052 135.826 5.6538 135.826 7.0769C135.826 9.15641 135.055 10.4205 133.517 10.8666C133.017 11.0076 132.436 11.0769 131.777 11.0769C130.421 11.0769 129.418 10.7769 128.765 10.1743C128.066 9.5333 127.714 8.5 127.714 7.0769ZM130.148 7.0769C130.148 8.71021 130.475 9.66923 131.131 9.94869C131.327 10.0333 131.543 10.0769 131.777 10.0769C132.568 10.0769 133.068 9.56923 133.274 8.55124C133.352 8.16407 133.392 7.67435 133.392 7.0769C133.392 5.44868 133.064 4.48972 132.409 4.20512C132.219 4.12049 132.007 4.0769 131.777 4.0769C130.976 4.0769 130.472 4.58457 130.266 5.60256C130.188 5.98973 130.148 6.47946 130.148 7.0769ZM137.955 8.62051V3.23073H140.388V8.61794C140.388 9.10253 140.557 9.47176 140.895 9.72305C141.159 9.90767 141.534 10 142.014 10C142.498 10 142.869 9.89738 143.126 9.69225V3.23073H145.56V10.9231H143.839L143.532 10.4641H143.434C142.866 10.8718 142.089 11.0769 141.102 11.0769C140.108 11.0769 139.368 10.9179 138.884 10.6025C138.266 10.1974 137.955 9.53586 137.955 8.62051ZM148.193 14V3.23073H149.913L150.22 3.68715H150.318C150.886 3.27947 151.63 3.07691 152.546 3.07691C154.195 3.07691 155.26 3.79487 155.743 5.22819C155.915 5.73329 156 6.35124 156 7.0769C156 9.14612 155.287 10.4103 153.864 10.8666C153.408 11.0076 152.874 11.0769 152.265 11.0769C151.654 11.0769 151.109 10.9487 150.626 10.6923V14H148.193ZM150.626 9.69225C150.896 9.89738 151.268 10 151.745 10C152.319 10 152.749 9.80253 153.033 9.40514C153.387 8.92562 153.566 8.14871 153.566 7.0769C153.566 5.50257 153.198 4.57178 152.458 4.28203C152.235 4.1974 151.995 4.15381 151.745 4.15381C151.349 4.15381 150.978 4.25637 150.626 4.4615V9.69225Z" fill="white"/>
</svg>
