<svg width="38" height="31" viewBox="0 0 38 31" fill="none" xmlns="http://www.w3.org/2000/svg">
<path d="M30.642 17.8676L26.9688 14.146C26.5288 13.7005 26.4454 13.4835 25.6833 13.5697C25.2971 13.6138 24.9186 13.7108 24.5581 13.8579C24.225 14.0117 23.9012 14.1853 23.5883 14.3779L18.6084 17.4088L16.1552 18.8994C14.8681 19.6828 13.6448 20.1383 12.5654 20.2492C10.8596 20.4264 10.0076 19.9031 8.92817 18.8116L6.13156 16.006C5.55097 15.4097 5.54934 14.8599 6.21169 14.2139L7.35651 13.0546L11.0297 16.7745C11.4697 17.22 11.5547 17.437 12.3152 17.3508C12.9792 17.2829 13.7985 16.9616 14.7209 16.4002L17.1397 14.9278L21.8417 12.0658L21.9856 11.9797C23.0257 11.3603 24.2278 10.8087 25.402 10.6878C26.7349 10.5487 27.5477 10.8386 28.354 11.4911C28.5534 11.6516 28.7434 11.8235 28.9231 12.0062L29.0311 12.1155L31.8277 14.9476C32.4083 15.5422 32.4099 16.0938 31.7492 16.738C31.378 17.1074 31.0083 17.475 30.6404 17.8477L30.642 17.8676ZM28.6059 19.9925L19.5242 29.1895C19.0001 29.7197 18.3778 30.1399 17.6931 30.4261C17.0083 30.7123 16.2745 30.8588 15.5337 30.8573C14.7939 30.8592 14.061 30.7131 13.3771 30.4274C12.6932 30.1418 12.0716 29.7222 11.5482 29.1928L1.64716 19.166C0.592238 18.0928 0 16.64 0 15.1257C0 13.6113 0.592238 12.1586 1.64716 11.0853L11.7624 0.843244C12.881 -0.281332 14.3644 -0.291269 15.5354 0.874713L3.54592 13.0099C2.99592 13.5719 2.68735 14.3311 2.68735 15.1224C2.68735 15.9136 2.99592 16.6729 3.54592 17.2349L13.4485 27.2633C13.7224 27.5405 14.0475 27.7603 14.4053 27.9101C14.7631 28.0599 15.1466 28.1367 15.5337 28.1362C15.9207 28.1371 16.304 28.0608 16.6618 27.9116C17.0196 27.7624 17.3449 27.5432 17.6189 27.2666L26.7006 18.0696L28.6042 19.9958L28.6059 19.9925ZM9.39754 11.0042L18.4775 1.80716C19.0014 1.27706 19.6233 0.856862 20.3078 0.570663C20.9923 0.284464 21.7259 0.137892 22.4664 0.139349C23.2062 0.137531 23.9391 0.283627 24.623 0.56926C25.307 0.854894 25.9285 1.27445 26.452 1.80385L36.353 11.8306C37.4078 12.9036 38 14.3561 38 15.8702C38 17.3842 37.4078 18.8367 36.353 19.9097L26.2459 30.1568C25.124 31.2813 23.6423 31.2913 22.4713 30.1253L34.4575 17.9868C35.0075 17.4248 35.3161 16.6656 35.3161 15.8743C35.3161 15.083 35.0075 14.3238 34.4575 13.7618L24.5549 3.73335C24.2808 3.45595 23.9555 3.23606 23.5974 3.08628C23.2393 2.9365 22.8555 2.85978 22.468 2.86052C22.0811 2.85956 21.6978 2.93587 21.34 3.08507C20.9822 3.23427 20.6569 3.45344 20.3828 3.73004L11.2996 12.9271L9.39754 11.0009V11.0042ZM20.88 19.3416L13.653 23.6064L14.7193 24.6862C15.4879 25.4547 16.1912 25.4547 17.0285 24.5802C17.3458 24.249 20.113 21.445 22.0755 19.4559C21.7354 19.1528 21.3396 19.1031 20.88 19.3416ZM17.1528 11.6534L24.3799 7.38864L23.3152 6.31044C22.5449 5.54195 21.8351 5.5403 21.0043 6.41478C20.687 6.74603 17.9199 9.55001 15.9573 11.5391C16.2975 11.8439 16.6949 11.8919 17.1528 11.6534Z" fill="#E31E24"/>
</svg>
